# xmcd
#
# Track frame offsets: 
#        182
#        39637
#        73062
#        104027
#        149422
#        194512
#        233475
#        274840
#        289660
#
# Disc length: 4407 seconds
#
# Revision: 1
# Processed by: cddbd v1.5.2PL0 Copyright (c) Steve Scherf et al.
# Submitted via: ExactAudioCopy v0.95b4
#
DISCID=8e113509
DTITLE=Pamela Frank, Zinman, TOZ - Mozart - Violin Concertos Nos1-5, H
DTITLE=affner Serenade [CD2)
DYEAR=2000
DGENRE=Concertos
TTITLE0=Violin Concerto No. 4 in D major KV 218 - Allegro
TTITLE1=Violin Concerto No. 4 in D major KV 218 - Andnte cantabile
TTITLE2=Violin Concerto No. 4 in D major KV 218 - Rondeau - Andante gr
TTITLE2=azioso
TTITLE3=Violin Concerto No. 5 in A major KV 219 - Allegro aperto
TTITLE4=Violin Concerto No. 5 in A major KV 219 - Adagio
TTITLE5=Violin Concerto No. 5 in A major KV 219 - Rondeau - Tempo di M
TTITLE5=enuetto
TTITLE6=From the: Serenade in D major KV 250 (Haffner) - Andante
TTITLE7=From the: Serenade in D major KV 250 (Haffner) - Menuetto
TTITLE8=From the: Serenade in D major KV 250 (Haffner) - Rondeau
EXTD=
EXTT0=
EXTT1=
EXTT2=
EXTT3=
EXTT4=
EXTT5=
EXTT6=
EXTT7=
EXTT8=
PLAYORDER=
